<?xml version="1.0" standalone="no"?>
<!DOCTYPE svg PUBLIC "-//W3C//DTD SVG 20010904//EN"
 "http://www.w3.org/TR/2001/REC-SVG-20010904/DTD/svg10.dtd">
<svg version="1.0" xmlns="http://www.w3.org/2000/svg"
 width="1024.000000pt" height="1024.000000pt" viewBox="0 0 1024.000000 1024.000000"
 preserveAspectRatio="xMidYMid meet">

<g transform="translate(0.000000,1024.000000) scale(0.100000,-0.100000)"
fill="#D40000FF" stroke="none">
<path d="M833 6292 c-101 -35 -172 -115 -193 -216 -7 -35 -10 -340 -8 -951 l3
-900 28 -57 c32 -64 80 -111 146 -142 46 -21 51 -21 991 -21 l945 0 45 22 c68
34 112 75 145 134 l30 54 0 940 0 940 -27 50 c-34 64 -80 108 -143 137 l-50
23 -930 2 c-873 2 -933 2 -982 -15z m1157 -291 c0 -5 -14 -80 -30 -167 -17
-87 -28 -164 -26 -171 4 -10 52 -13 206 -13 188 0 200 -1 200 -18 0 -15 -35
-204 -56 -299 -4 -23 -5 -23 -204 -23 -109 0 -201 -4 -204 -9 -14 -22 -86
-441 -86 -497 0 -52 4 -68 24 -91 24 -27 27 -28 123 -28 54 0 122 4 152 8 l53
8 -7 -158 c-4 -87 -9 -161 -12 -165 -10 -17 -139 -47 -248 -58 -202 -20 -355
13 -438 93 -80 78 -114 191 -103 342 3 44 26 181 51 305 25 124 45 231 45 238
0 10 -29 13 -127 11 -71 -1 -128 0 -127 2 0 2 13 79 29 171 l29 167 136 3 135
3 22 125 c13 69 28 149 34 178 l10 52 210 0 c119 0 209 -4 209 -9z"/>
<path d="M5143 5878 c-6 -7 -13 -29 -16 -48 -3 -19 -26 -154 -51 -300 -25
-146 -72 -424 -106 -618 -33 -194 -60 -364 -60 -377 l0 -25 154 0 c85 0 157 4
160 8 3 4 21 100 40 211 20 112 37 205 39 207 1 2 41 -72 87 -164 127 -249
155 -272 342 -272 82 0 99 3 107 18 12 22 42 212 35 223 -3 5 -22 9 -44 9 -34
0 -41 4 -68 48 -34 53 -152 259 -152 264 0 2 88 91 195 199 107 107 195 200
195 207 0 9 -40 12 -158 12 l-159 0 -129 -138 c-71 -75 -151 -162 -178 -192
-38 -44 -47 -50 -43 -30 17 73 126 691 129 725 l3 40 -156 3 c-117 2 -159 -1
-166 -10z"/>
<path d="M8161 5868 c-8 -20 -120 -653 -184 -1038 -23 -141 -19 -199 16 -252
50 -73 126 -96 281 -85 91 6 112 12 120 33 4 11 36 205 36 221 0 2 -21 3 -47
3 -55 0 -68 6 -75 36 -6 23 -3 43 67 419 97 523 115 627 115 655 l0 30 -160 0
c-157 0 -161 0 -169 -22z"/>
<path d="M3488 5743 c-17 -4 -20 -15 -49 -170 -18 -98 -14 -93 -77 -93 -31 0
-62 -4 -69 -8 -12 -7 -43 -163 -43 -214 0 -28 1 -28 66 -28 l66 0 -6 -27 c-82
-392 -93 -547 -43 -621 42 -65 99 -86 242 -89 72 -2 144 2 180 9 l59 13 18
114 c9 63 15 118 12 122 -3 5 -33 6 -68 2 -88 -8 -114 0 -132 43 -13 32 -12
49 21 227 19 106 35 196 35 200 0 3 55 8 123 9 l122 3 19 108 c10 59 15 114
12 123 -5 13 -24 15 -116 12 -61 -2 -110 1 -110 6 0 5 10 60 21 122 12 63 19
121 15 129 -5 13 -27 16 -143 14 -76 -1 -146 -4 -155 -6z"/>
<path d="M4405 5500 c-195 -31 -331 -145 -360 -301 -7 -35 -6 -37 27 -42 18
-3 75 -7 126 -9 l92 -2 25 36 c46 67 160 88 224 40 27 -20 38 -71 27 -119 -6
-22 -10 -23 -99 -23 -122 0 -247 -16 -325 -41 -80 -27 -160 -97 -191 -169 -62
-144 -25 -276 97 -347 39 -23 60 -28 138 -31 102 -5 178 12 252 55 24 14 44
24 45 22 2 -2 8 -16 15 -31 8 -20 21 -29 47 -34 40 -7 201 -1 211 8 3 4 14 55
24 115 10 59 37 214 60 343 51 286 52 364 6 424 -55 72 -136 104 -286 111 -52
2 -122 0 -155 -5z m125 -602 c0 -43 -22 -103 -48 -130 -51 -55 -160 -71 -218
-33 -33 21 -33 83 -1 120 31 36 117 64 200 65 63 0 67 -1 67 -22z"/>
<path d="M6445 5500 c-182 -28 -302 -112 -353 -245 -39 -101 -38 -102 124
-106 l101 -3 39 41 c93 98 244 73 244 -39 0 -24 -4 -48 -8 -54 -4 -7 -66 -14
-157 -18 -283 -13 -386 -59 -452 -202 -30 -66 -40 -159 -22 -221 17 -61 79
-124 144 -146 102 -35 286 -14 370 43 37 25 45 25 45 1 0 -42 25 -51 144 -51
79 0 117 4 124 13 5 6 13 32 17 57 4 25 31 185 62 355 60 341 62 387 18 460
-28 49 -95 88 -175 103 -80 16 -208 21 -265 12z m110 -622 c-16 -97 -48 -133
-138 -158 -38 -10 -56 -10 -87 -1 -43 13 -60 35 -60 78 0 75 82 120 223 122
l69 1 -7 -42z"/>
<path d="M7405 5495 c-147 -33 -233 -85 -294 -176 -96 -144 -71 -298 59 -364
28 -14 110 -39 182 -56 157 -35 180 -47 176 -92 -2 -27 -11 -36 -48 -54 -78
-40 -218 -26 -339 35 l-53 27 -28 -33 c-15 -19 -49 -65 -76 -103 -45 -65 -46
-70 -30 -87 46 -52 192 -98 341 -108 243 -17 448 74 526 232 27 55 32 76 32
137 0 82 -15 120 -65 162 -49 42 -100 61 -238 89 -169 35 -213 71 -155 126 25
23 34 25 123 25 90 0 102 -3 166 -34 51 -25 74 -31 85 -24 29 18 141 158 139
173 -2 8 -22 29 -45 46 -104 80 -302 113 -458 79z"/>
<path d="M8982 5499 c-76 -11 -156 -41 -211 -77 -56 -38 -118 -123 -137 -188
-23 -80 -17 -84 125 -84 l116 1 20 32 c15 24 34 37 77 51 102 33 178 -2 178
-82 0 -66 -7 -69 -172 -76 -268 -12 -388 -66 -452 -205 -16 -36 -21 -66 -21
-138 0 -86 2 -94 30 -134 17 -24 52 -57 79 -74 44 -27 58 -30 152 -33 113 -5
195 15 266 63 20 14 39 25 42 25 4 0 6 -15 6 -34 0 -22 6 -36 16 -40 9 -3 64
-6 124 -6 78 0 111 4 119 13 13 17 120 602 128 702 7 89 -8 145 -53 194 -45
51 -109 77 -219 90 -101 12 -124 12 -213 0z m128 -587 c0 -43 -27 -126 -47
-146 -25 -26 -101 -56 -138 -56 -75 0 -121 50 -101 109 14 42 50 70 113 87 54
14 173 18 173 6z"/>
</g>
</svg>
 